HIERARCHY
ROOT SpineBase
{
  OFFSET 0.000000 0.000000 0.000000
  CHANNELS 6 Xposition Yposition Zposition Zrotation Xrotation Yrotation
  JOINT SpineMid
  {
    OFFSET 0.000000 29.323280 0.000000
    CHANNELS 3 Zrotation Xrotation Yrotation
    JOINT SpineShoulder
    {
      OFFSET 0.142250 21.855084 -0.509640
      CHANNELS 3 Zrotation Xrotation Yrotation
      JOINT Neck
      {
        OFFSET 0.099747 7.253122 -0.455353
        CHANNELS 3 Zrotation Xrotation Yrotation
        JOINT Head
        {
          OFFSET -1.086256 14.582052 -1.492657
          CHANNELS 3 Zrotation Xrotation Yrotation
          End Site
          {
            OFFSET 0 0 0
          }
        }
      }
      JOINT ShoulderLeft
      {
        OFFSET -17.088645 -2.009668 -2.655390
        CHANNELS 3 Zrotation Xrotation Yrotation
        JOINT ElbowLeft
        {
          OFFSET -2.836335 -26.419944 -0.237813
          CHANNELS 3 Zrotation Xrotation Yrotation
          JOINT WristLeft
          {
            OFFSET 1.918302 -19.793248 -6.070988
            CHANNELS 3 Zrotation Xrotation Yrotation
            JOINT HandLeft
            {
              OFFSET 2.016747 -4.062013 -1.246659
              CHANNELS 3 Zrotation Xrotation Yrotation
              JOINT HandTipLeft
              {
                OFFSET 0.319661 -6.543506 -0.444959
                CHANNELS 3 Zrotation Xrotation Yrotation
                End Site
                {
                  OFFSET 0 0 0
                }
              }
              JOINT ThumbLeft
              {
                OFFSET -2.562062 -2.640205 -1.644025
                CHANNELS 3 Zrotation Xrotation Yrotation
                End Site
                {
                  OFFSET 0 0 0
                }
              }
            }
          }
        }
      }
      JOINT ShoulderRight
      {
        OFFSET 16.518449 -2.195393 0.023420
        CHANNELS 3 Zrotation Xrotation Yrotation
        JOINT ElbowRight
        {
          OFFSET 3.723123 -24.816768 2.309223
          CHANNELS 3 Zrotation Xrotation Yrotation
          JOINT WristRight
          {
            OFFSET -0.540855 -19.985524 -6.813745
            CHANNELS 3 Zrotation Xrotation Yrotation
            JOINT HandRight
            {
              OFFSET -1.629760 -7.221138 -2.639655
              CHANNELS 3 Zrotation Xrotation Yrotation
              JOINT HandTipRight
              {
                OFFSET 0.303082 -6.695013 -4.129214
                CHANNELS 3 Zrotation Xrotation Yrotation
                End Site
                {
                  OFFSET 0 0 0
                }
              }
              JOINT ThumbRight
              {
                OFFSET -3.799230 0.500025 -2.611258
                CHANNELS 3 Zrotation Xrotation Yrotation
                End Site
                {
                  OFFSET 0 0 0
                }
              }
            }
          }
        }
      }
    }
  }
  JOINT HipLeft
  {
    OFFSET -6.910624 0.560022 -3.715287
    CHANNELS 3 Zrotation Xrotation Yrotation
    JOINT KneeLeft
    {
      OFFSET -2.704121 -25.903870 4.171783
      CHANNELS 3 Zrotation Xrotation Yrotation
      JOINT AnkleLeft
      {
        OFFSET -2.419852 -32.243213 8.949912
        CHANNELS 3 Zrotation Xrotation Yrotation
        JOINT FootLeft
        {
          OFFSET -2.480983 -8.736668 -2.795485
          CHANNELS 3 Zrotation Xrotation Yrotation
          End Site
          {
            OFFSET 0 0 0
          }
        }
      }
    }
  }
  JOINT HipRight
  {
    OFFSET 7.936640 1.165301 -2.927627
    CHANNELS 3 Zrotation Xrotation Yrotation
    JOINT KneeRight
    {
      OFFSET 5.645996 -25.282714 -0.535328
      CHANNELS 3 Zrotation Xrotation Yrotation
      JOINT AnkleRight
      {
        OFFSET -0.309015 -33.944741 5.290940
        CHANNELS 3 Zrotation Xrotation Yrotation
        JOINT FootRight
        {
          OFFSET 1.910787 -7.543725 -6.083061
          CHANNELS 3 Zrotation Xrotation Yrotation
          End Site
          {
            OFFSET 0 0 0
          }
        }
      }
    }
  }
}
MOTION
Frames: 5
Frame Time: 0.033333
-53.671372 66.323729 358.294235 -0.000000 0.000000 -3.036746 -0.000000 0.000000 3.036746 -0.000000 0.000000 0.000000 -0.000000 0.000000 0.000000 0.000000 0.000000 0.000000 -0.000000 0.000000 0.000000 -0.000000 0.000000 0.000000 -0.000000 0.000000 0.000000 -0.000000 0.000000 0.000000 0.000000 0.000000 0.000000 0.000000 0.000000 0.000000 -0.000000 0.000000 0.000000 -0.000000 0.000000 0.000000 -0.000000 0.000000 0.000000 -0.000000 0.000000 0.000000 0.000000 0.000000 0.000000 0.000000 0.000000 0.000000 -0.000000 0.000000 3.036746 -0.000000 0.000000 0.000000 -0.000000 0.000000 0.000000 0.000000 0.000000 0.000000 -0.000000 0.000000 3.036746 -0.000000 0.000000 0.000000 -0.000000 0.000000 0.000000 0.000000 0.000000 0.000000
-53.585564 66.325124 358.288999 0.105932 0.062656 -3.081041 -0.102411 -0.068259 3.080922 -0.000000 0.000000 0.000000 -0.000000 0.000000 0.000000 0.000000 0.000000 0.000000 -0.000000 0.000000 0.000000 -0.000000 0.000000 0.000000 -3.901017 -3.093997 -0.455674 2.446495 3.155263 0.422842 0.000000 0.000000 0.000000 0.000000 0.000000 0.000000 -0.000000 0.000000 0.000000 -0.000000 0.000000 0.000000 -0.000000 0.000000 0.000000 -0.743448 2.554433 0.582919 0.000000 0.000000 0.000000 0.000000 0.000000 0.000000 -0.102411 -0.068259 3.080922 -0.000000 0.000000 0.000000 2.605672 10.466592 -3.960998 0.000000 0.000000 0.000000 -0.102411 -0.068259 3.080922 -0.000000 0.000000 0.000000 -0.000000 0.000000 0.000000 0.000000 0.000000 0.000000
-53.513395 66.327086 358.288306 0.198782 0.118407 -3.143347 -0.191991 -0.129128 3.142925 -0.000000 0.000000 0.000000 -0.000000 0.000000 0.000000 0.000000 0.000000 0.000000 -0.000000 0.000000 0.000000 -0.000000 0.000000 0.000000 -6.591564 -5.271942 -0.937936 3.958004 5.363411 0.745649 0.000000 0.000000 0.000000 0.000000 0.000000 0.000000 -0.000000 0.000000 0.000000 -0.000000 0.000000 0.000000 -0.595029 -0.726934 0.378236 -0.683848 5.165539 0.666177 0.000000 0.000000 0.000000 0.000000 0.000000 0.000000 -0.191991 -0.129128 3.142925 -0.000000 0.000000 0.000000 5.339002 18.893161 -7.693093 0.000000 0.000000 0.000000 -0.191991 -0.129128 3.142925 -0.000000 0.000000 0.000000 -0.000000 0.000000 0.000000 0.000000 0.000000 0.000000
-53.454865 66.329615 358.292157 0.278579 0.167267 -3.223818 -0.268733 -0.182667 3.222983 -0.000000 0.000000 0.000000 -0.000000 0.000000 0.000000 0.000000 0.000000 0.000000 0.346386 0.777419 -0.088953 -0.345211 -0.777942 0.084259 -8.338471 -6.762786 -1.365573 4.829616 6.837953 1.012157 0.000000 0.000000 0.000000 0.000000 0.000000 0.000000 -0.000000 0.000000 0.000000 -0.000000 0.000000 0.000000 -0.853613 -1.003209 0.531794 -0.779132 6.660916 0.823328 0.000000 0.000000 0.000000 0.000000 0.000000 0.000000 -0.268733 -0.182667 3.222983 -0.000000 0.000000 0.000000 7.757340 24.972599 -10.820088 0.000000 0.000000 0.000000 -0.268733 -0.182667 3.222983 -0.000000 0.000000 0.000000 -0.000000 0.000000 0.000000 0.000000 0.000000 0.000000
-53.409974 66.332711 358.300551 0.345343 0.209250 -3.322615 -0.332638 -0.228910 3.321319 -0.000000 0.000000 0.000000 -0.000000 0.000000 0.000000 0.000000 0.000000 0.000000 0.433964 0.972503 -0.112033 -0.432125 -0.973322 0.104679 -9.304069 -7.715155 -1.707470 5.244618 7.718305 1.235897 0.000000 0.000000 0.000000 0.000000 0.000000 0.000000 -0.000000 0.000000 0.000000 0.810112 -0.152750 -0.271160 -1.889578 -1.074912 0.937265 -0.708653 7.441319 0.842969 0.000000 0.000000 0.000000 0.000000 0.000000 0.000000 -0.332638 -0.228910 3.321319 -0.000000 0.000000 0.000000 9.502112 28.878651 -13.051299 0.000000 0.000000 0.000000 -0.332638 -0.228910 3.321319 -0.000000 0.000000 0.000000 -0.000000 0.000000 0.000000 0.000000 0.000000 0.000000
